<?xml version="1.0" standalone="no"?>
<!DOCTYPE svg PUBLIC "-//W3C//DTD SVG 20010904//EN"
 "http://www.w3.org/TR/2001/REC-SVG-20010904/DTD/svg10.dtd">
<svg version="1.0" xmlns="http://www.w3.org/2000/svg"
 width="275.000000pt" height="183.000000pt" viewBox="0 0 275.000000 183.000000"
 preserveAspectRatio="xMidYMid meet">

<g transform="translate(0.000000,183.000000) scale(0.100000,-0.100000)"
fill="#000000" stroke="none">
<path d="M929 1378 c-12 -10 -21 -53 -34 -168 -10 -85 -23 -197 -29 -249 l-11
-94 -85 -48 c-83 -47 -120 -59 -120 -39 0 16 -43 12 -86 -9 -47 -23 -85 -62
-66 -68 28 -10 7 -31 -79 -76 -87 -47 -90 -50 -87 -80 2 -23 10 -34 28 -41 22
-7 38 -1 98 38 l72 46 0 -38 c0 -26 11 -55 35 -92 l34 -55 -54 -24 c-39 -16
-55 -29 -55 -42 0 -17 5 -18 43 -13 23 4 60 12 82 19 38 11 40 13 39 51 0 21
-4 51 -8 66 -8 26 -6 28 20 28 52 0 58 -11 40 -70 -13 -43 -13 -55 -4 -62 23
-14 33 -3 61 71 34 88 29 99 -50 131 l-59 23 11 46 c8 30 21 51 37 61 14 8 44
28 67 43 23 16 49 31 57 34 8 3 11 9 8 14 -3 5 8 14 25 20 31 11 41 32 20 44
-6 4 -7 14 -4 24 4 9 19 118 34 242 16 125 31 231 35 238 9 14 1112 16 1120 2
5 -7 -11 -162 -17 -168 -1 -1 -26 3 -56 9 -112 20 -215 -37 -255 -144 -17 -44
-17 -47 0 -72 13 -22 22 -26 43 -21 22 5 27 2 28 -16 1 -12 -1 -18 -4 -15 -4
3 -16 -13 -28 -36 -20 -39 -49 -58 -51 -33 -2 28 -19 70 -33 84 -13 13 -25 15
-49 9 -28 -8 -32 -13 -32 -43 0 -19 5 -35 11 -35 7 0 9 10 7 24 -3 14 -1 31 3
38 5 8 8 5 8 -12 1 -14 1 -35 1 -48 0 -13 7 -37 16 -54 9 -17 12 -37 8 -46 -4
-10 -6 -21 -5 -25 1 -5 -2 -6 -7 -3 -4 2 -14 1 -22 -4 -11 -7 -7 -11 17 -16
18 -3 38 -13 44 -20 23 -28 -37 -38 -236 -38 -183 -1 -245 8 -245 33 0 5 21
14 47 20 36 9 53 9 76 0 31 -13 47 -2 47 34 0 17 -25 24 -32 8 -1 -4 -23 -11
-47 -14 -25 -3 -40 -3 -34 1 12 8 13 42 1 42 -4 0 -8 7 -8 17 0 14 2 14 20 -2
11 -10 20 -13 20 -7 0 6 -5 12 -11 14 -7 2 -7 12 0 30 7 18 7 29 0 34 -14 8
-39 -15 -39 -37 0 -14 -7 -18 -25 -17 -20 2 -26 9 -31 35 -3 18 -10 30 -15 27
-18 -11 -8 22 12 40 14 12 18 21 11 28 -7 7 -4 16 10 30 19 19 20 19 33 1 11
-15 11 -21 -2 -35 -14 -15 -13 -19 3 -40 20 -25 49 -26 58 -2 7 19 -12 57 -24
49 -5 -3 -6 11 -3 31 6 34 4 36 -16 29 -13 -4 -21 -2 -21 5 0 6 -8 9 -17 6
-10 -3 -36 -8 -58 -12 -57 -8 -160 -66 -160 -90 0 -10 -11 -36 -24 -57 -21
-33 -24 -50 -22 -120 1 -44 -3 -109 -10 -144 l-13 -63 -48 0 c-32 0 -48 4 -48
13 1 6 7 57 14 112 14 101 13 116 -4 99 -8 -8 -32 -178 -34 -244 l-1 -25 284
-3 c274 -2 283 -3 278 -22 -3 -11 3 -26 14 -36 17 -16 18 -15 12 20 l-6 36 57
0 57 0 -7 -53 c-4 -28 -9 -55 -13 -59 -4 -4 -80 -9 -170 -10 -157 -3 -164 -4
-179 -26 l-14 -22 262 0 262 0 -14 22 c-12 18 -26 24 -68 26 l-52 3 6 37 c3
20 6 47 6 59 l0 23 233 2 232 3 16 130 c9 72 20 159 23 195 l7 65 -38 13 c-21
7 -51 16 -67 20 -39 10 -44 28 -10 36 17 5 32 2 43 -7 9 -8 30 -18 47 -21 l31
-7 22 188 c12 103 24 207 28 231 4 32 2 42 -8 42 -8 0 -268 2 -579 5 -461 5
-568 4 -581 -7z m859 -331 c7 -8 7 -18 2 -27 -6 -8 -10 -25 -10 -37 0 -31 -22
-29 -37 3 -21 46 16 96 45 61z m-508 -203 c0 -8 -5 -12 -10 -9 -6 4 -8 11 -5
16 9 14 15 11 15 -7z m454 -29 c-4 -8 -13 -15 -20 -15 -12 0 -12 3 -2 15 17
19 29 19 22 0z m250 -182 c-4 -43 -11 -83 -16 -89 -9 -13 -193 -19 -221 -8
-15 5 -13 12 14 45 21 26 59 53 121 84 49 25 94 45 99 45 6 0 7 -31 3 -77z"/>
<path d="M1020 1325 c-20 -24 4 -45 26 -24 13 14 13 17 1 27 -11 10 -17 9 -27
-3z"/>
<path d="M1867 1323 c-17 -16 -3 -23 48 -23 42 0 55 3 55 15 0 11 -12 15 -48
15 -27 0 -52 -3 -55 -7z"/>
<path d="M1472 1176 c-15 -33 -11 -44 7 -22 7 8 11 23 9 32 -2 14 -6 11 -16
-10z"/>
<path d="M1522 1187 c-7 -8 -6 -17 3 -30 7 -10 16 -14 19 -8 3 5 0 11 -6 14
-10 3 -10 7 1 20 7 10 9 17 3 17 -5 0 -14 -6 -20 -13z"/>
<path d="M1474 1125 c-12 -29 -13 -44 -5 -61 8 -18 7 -24 -7 -27 -15 -4 -15
-5 0 -6 12 -1 15 -7 10 -23 -5 -20 -4 -21 11 -10 14 12 19 11 33 -3 16 -16 18
-16 27 1 7 13 5 21 -9 31 -10 7 -24 13 -31 13 -17 0 -16 8 2 26 19 20 19 68 0
84 -13 10 -17 7 -31 -25z"/>
<path d="M1545 1130 c-3 -6 1 -7 9 -4 18 7 21 14 7 14 -6 0 -13 -4 -16 -10z"/>
<path d="M2154 1129 c-33 -9 -67 -39 -45 -39 7 0 9 -5 5 -12 -4 -6 -3 -8 3 -5
9 6 73 -45 73 -57 0 -2 -11 -7 -25 -10 -25 -6 -95 -62 -95 -75 0 -4 11 -13 24
-21 19 -10 28 -28 40 -80 13 -59 13 -82 1 -186 -8 -66 -15 -156 -15 -201 l0
-83 34 0 c32 0 34 2 40 45 4 25 11 45 15 45 4 0 15 -16 25 -36 15 -33 20 -36
48 -30 43 8 44 11 25 51 -9 20 -17 45 -17 56 0 11 -4 28 -10 38 -5 10 -10 81
-10 157 -1 140 -15 227 -47 288 -9 17 -12 32 -7 33 36 13 38 21 11 57 -15 19
-27 44 -27 55 0 23 -1 23 -46 10z"/>
<path d="M1320 1112 c-23 -7 -70 -54 -70 -69 0 -7 6 -13 14 -13 14 0 30 27 27
46 -1 7 8 14 19 17 21 5 21 5 -1 -29 -17 -29 -18 -34 -5 -34 9 0 17 5 17 10 3
19 5 25 17 47 13 23 6 33 -18 25z"/>
<path d="M1403 1103 c9 -2 23 -2 30 0 6 3 -1 5 -18 5 -16 0 -22 -2 -12 -5z"/>
<path d="M1400 1062 c-33 -16 -54 -52 -31 -52 6 0 11 5 11 11 0 5 5 7 10 4 6
-3 10 -2 10 3 0 6 10 8 23 4 19 -5 20 -3 10 10 -10 11 -10 17 -1 26 16 16 10
15 -32 -6z"/>
<path d="M1537 1069 c7 -7 15 -10 18 -7 3 3 -2 9 -12 12 -14 6 -15 5 -6 -5z"/>
<path d="M1603 1073 c-17 -6 -16 -73 1 -95 20 -27 30 -21 12 7 -21 32 -20 35
9 35 29 0 33 21 9 44 -8 9 -16 16 -17 15 -1 0 -8 -3 -14 -6z"/>
<path d="M1297 1013 c-13 -13 -7 -32 8 -27 8 4 15 12 15 20 0 15 -12 19 -23 7z"/>
<path d="M1438 1003 c7 -3 16 -2 19 1 4 3 -2 6 -13 5 -11 0 -14 -3 -6 -6z"/>
<path d="M1635 990 c-3 -5 -1 -10 4 -10 6 0 11 5 11 10 0 6 -2 10 -4 10 -3 0
-8 -4 -11 -10z"/>
<path d="M1313 973 c-17 -6 -16 -23 1 -23 8 0 16 7 20 15 6 15 1 17 -21 8z"/>
<path d="M1423 970 c12 -8 16 -18 11 -32 -4 -14 -2 -18 5 -14 6 4 11 14 11 23
0 13 3 13 15 3 13 -11 14 -10 9 4 -3 9 -12 16 -19 16 -7 0 -22 3 -32 6 -17 5
-17 5 0 -6z"/>
<path d="M1345 960 c-8 -13 -1 -24 14 -19 6 3 7 10 2 18 -6 10 -10 10 -16 1z"/>
<path d="M1393 953 c-20 -7 -15 -23 6 -23 10 0 21 7 25 15 5 15 -7 18 -31 8z"/>
<path d="M1547 943 c-13 -12 -7 -22 10 -16 9 4 14 2 10 -3 -3 -5 3 -10 14 -10
12 0 19 7 19 18 0 18 -39 26 -53 11z"/>
<path d="M1327 923 c-15 -15 -7 -43 13 -43 15 0 20 7 20 25 0 24 -18 34 -33
18z"/>
<path d="M1377 906 c-4 -10 -1 -13 9 -9 15 6 19 23 5 23 -5 0 -11 -7 -14 -14z"/>
<path d="M605 903 c-40 -10 -47 -51 -15 -86 18 -18 22 -20 30 -7 5 8 10 21 10
29 0 8 8 23 17 33 15 17 15 20 3 28 -8 6 -17 9 -20 9 -3 -1 -14 -4 -25 -6z"/>
<path d="M1511 878 c-8 -18 -18 -27 -27 -24 -8 3 -14 -1 -14 -9 0 -25 23 -16
53 20 19 24 23 34 14 38 -8 3 -18 -7 -26 -25z"/>
<path d="M1428 894 c6 -3 10 -10 6 -15 -3 -5 -1 -9 5 -9 19 0 4 -35 -17 -38
-12 -2 -22 -7 -22 -12 0 -12 37 0 50 16 18 20 8 58 -15 61 -11 2 -14 0 -7 -3z"/>
<path d="M1307 863 c-9 -9 -9 -43 1 -43 4 0 15 12 25 25 17 24 17 25 -1 25
-10 0 -22 -3 -25 -7z"/>
<path d="M1533 826 c5 -16 27 -19 27 -3 0 7 -7 14 -15 14 -9 0 -14 -5 -12 -11z"/>
<path d="M1565 764 c-4 -16 -9 -35 -11 -42 -2 -8 1 -12 8 -10 18 6 32 58 20
70 -8 8 -13 2 -17 -18z"/>
<path d="M1455 720 c-4 -6 -3 -16 3 -22 13 -13 23 4 13 21 -7 10 -10 10 -16 1z"/>
<path d="M430 321 c-15 -28 -13 -30 15 -18 14 7 25 18 25 25 0 19 -28 14 -40
-7z"/>
<path d="M700 320 c0 -19 5 -25 24 -27 13 -2 17 1 12 13 -3 8 -6 18 -6 20 0 2
-7 4 -15 4 -8 0 -15 -4 -15 -10z"/>
</g>
</svg>
